<svg id="instagram" viewBox="0 0 512 512" xmlns="http://www.w3.org/2000/svg" xmlns:xlink="http://www.w3.org/1999/xlink"><radialGradient id="r" cx="104.96" cy="447.45" r="564.65" gradientUnits="userSpaceOnUse"><stop stop-color="#fae100" offset="0"/><stop stop-color="#fadc04" offset=".054"/><stop stop-color="#fbce0e" offset=".117"/><stop stop-color="#fcb720" offset=".183"/><stop stop-color="#fe9838" offset=".251"/><stop stop-color="#ff7950" offset=".305"/><stop stop-color="#ff1c74" offset=".492"/><stop stop-color="#6c1cd1" offset="1"/></radialGradient><linearGradient id="q" x1="196.37" x2="-671.02" y1="222.46" y2="-265.45" gradientUnits="userSpaceOnUse"><stop stop-color="#a1b5d8" stop-opacity="0" offset="0"/><stop stop-color="#90a2bd" stop-opacity=".31" offset=".309"/><stop stop-color="#7c8b9c" stop-opacity=".757" offset=".755"/><stop stop-color="#748290" offset="1"/></linearGradient><linearGradient id="p" x1="256" x2="256" y1="451.97" y2="531.77" gradientUnits="userSpaceOnUse"><stop stop-color="#fae100" stop-opacity="0" offset="0"/><stop stop-color="#fca800" stop-opacity=".306" offset=".307"/><stop stop-color="#fe7300" stop-opacity=".627" offset=".627"/><stop stop-color="#ff5200" stop-opacity=".867" offset=".869"/><stop stop-color="#ff4500" offset="1"/></linearGradient><linearGradient id="j"><stop stop-color="#833ab4" stop-opacity="0" offset="0"/><stop stop-color="#833ab4" offset="1"/></linearGradient><linearGradient id="o" x1="226.87" x2="100.16" y1="226.15" y2="99.436" gradientUnits="userSpaceOnUse" xlink:href="#j"/><linearGradient id="n" x1="350.9" x2="287.66" y1="468.29" y2="170.14" gradientUnits="userSpaceOnUse" xlink:href="#j"/><linearGradient id="m" x1="374.97" x2="120.94" y1="374.96" y2="120.94" gradientUnits="userSpaceOnUse" xlink:href="#j"/><linearGradient id="l" x1="393.81" x2="309.81" y1="221.26" y2="137.26" gradientUnits="userSpaceOnUse" xlink:href="#j"/><linearGradient id="k" x1="357.66" x2="150.54" y1="155.05" y2="362.17" gradientUnits="userSpaceOnUse"><stop stop-color="#833ab4" offset="0"/><stop stop-color="#9c3495" offset=".092"/><stop stop-color="#dc2546" offset=".293"/><stop stop-color="#fd1d1d" offset=".392"/><stop stop-color="#fc6831" offset=".559"/><stop stop-color="#fc9b40" offset=".689"/><stop stop-color="#fcaf45" offset=".752"/><stop stop-color="#fdb750" offset=".781"/><stop stop-color="#fecb6a" offset=".866"/><stop stop-color="#ffd87a" offset=".942"/><stop stop-color="#ffdc80" offset="1"/></linearGradient><path d="M503.23 91.578c-4.66-43.664-39.145-78.156-82.812-82.812-109.51-11.688-219.34-11.688-328.84 0-43.668 4.66-78.156 39.148-82.816 82.812-11.688 109.5-11.688 219.34 0 328.84 4.66 43.668 39.148 78.156 82.812 82.816 109.5 11.688 219.34 11.688 328.84 0 43.668-4.66 78.152-39.148 82.812-82.816 11.688-109.5 11.688-219.33 0-328.84z" fill="url(#r)"/><path d="M475.39 110.1c-4.133-38.746-34.734-69.352-73.484-73.488-97.172-10.367-194.63-10.367-291.8 0C71.36 40.749 40.754 71.354 36.618 110.1c-10.367 97.172-10.367 194.63 0 291.8 4.137 38.75 34.742 69.355 73.488 73.488 97.172 10.371 194.63 10.371 291.8 0 38.75-4.133 69.355-34.738 73.488-73.488 10.371-97.168 10.371-194.63 0-291.8z" fill="url(#q)"/><path d="M7.672 409.8c.351 3.54.715 7.078 1.094 10.617 4.66 43.664 39.148 78.152 82.816 82.812 109.5 11.688 219.34 11.688 328.84 0 43.668-4.66 78.152-39.148 82.812-82.812.379-3.54.742-7.078 1.097-10.617z" fill="url(#p)"/><path d="M503.23 420.42c6.281-58.84 9.18-117.77 8.71-176.7L394.91 126.69c-14.62-16.691-35.976-27.109-61.07-28.012-51.604-1.86-103.38-1.766-154.99.008-42.866 1.476-72.843 30.289-80.53 72.637-1.356 7.476-2.168 15.05-3.235 22.582v124.15c.59 4.023 1.457 8.027 1.727 12.074 1.719 25.758 12.305 47.82 29.254 62.746l119.09 119.09a1547.85 1547.85 0 00175.26-8.727c43.668-4.66 78.152-39.148 82.812-82.816z" fill="url(#o)"/><path d="M503.23 420.42c-4.656 43.66-39.152 78.156-82.812 82.812a1548.674 1548.674 0 01-175.25 8.727l-118.91-118.91c13.785 12.066 31.754 19.414 52.605 20.199 51.602 1.937 103.38 1.886 154.98.027 46.672-1.688 80.445-36.23 81.902-82.902a2373.867 2373.867 0 000-148.79c-.664-21.531-8.223-40.477-20.754-54.812l116.96 116.96c.46 58.918-2.438 117.86-8.715 176.7z" fill="url(#n)"/><path d="M316.41 200.56c-14.992-16.324-36.504-26.566-60.414-26.566-45.289 0-82.008 36.719-82.008 82.008 0 23.91 10.242 45.422 26.566 60.414l189.74 189.74a1564.194 1564.194 0 0030.121-2.918c43.668-4.66 78.156-39.148 82.816-82.816a1564.194 1564.194 0 002.918-30.121z" fill="url(#m)"/><path d="M511.01 311.15l-152.7-152.7c-3.563-4.676-9.176-7.71-15.508-7.71-10.773 0-19.512 8.733-19.512 19.511 0 6.332 3.035 11.945 7.71 15.508l177.28 177.29a1537.54 1537.54 0 002.731-51.895z" fill="url(#l)"/><path d="M95.09 193.9c1.066-7.531 1.879-15.105 3.234-22.582 7.684-42.348 37.664-71.16 80.531-72.637 51.613-1.773 103.38-1.867 154.99-.008 46.656 1.68 80.445 36.227 81.902 82.898a2379.847 2379.847 0 010 148.8c-1.457 46.672-35.234 81.215-81.898 82.898-51.605 1.863-103.39 1.91-154.99-.027-46.664-1.754-78.922-36.38-82.043-83.121-.27-4.043-1.136-8.051-1.726-12.074v-124.14zm160.95 191.71c23.617 0 47.258.707 70.844-.164 36.98-1.371 59.727-23.441 60.59-60.387a2974.07 2974.07 0 000-138.17c-.863-36.938-23.625-59.523-60.59-60.31a3343.644 3343.644 0 00-140.8 0c-36.684.77-59.496 22.899-60.492 59.43a2579.015 2579.015 0 000 139.93c.996 36.528 23.809 58.146 60.496 59.505 23.289.867 46.637.164 69.957.164z" fill="url(#k)"/><g fill="#fff"><path d="M95.09 193.9c1.066-7.531 1.879-15.105 3.234-22.582 7.684-42.348 37.664-71.16 80.531-72.637 51.613-1.773 103.38-1.867 154.99-.008 46.656 1.68 80.445 36.227 81.902 82.898a2379.847 2379.847 0 010 148.8c-1.457 46.672-35.234 81.215-81.898 82.898-51.605 1.863-103.39 1.91-154.99-.027-46.664-1.754-78.922-36.38-82.043-83.121-.27-4.043-1.136-8.051-1.726-12.074v-124.14zm160.95 191.71c23.617 0 47.258.707 70.844-.164 36.98-1.371 59.727-23.441 60.59-60.387a2974.07 2974.07 0 000-138.17c-.863-36.938-23.625-59.523-60.59-60.31a3343.644 3343.644 0 00-140.8 0c-36.684.77-59.496 22.899-60.492 59.43a2579.015 2579.015 0 000 139.93c.996 36.528 23.809 58.146 60.496 59.505 23.289.867 46.637.164 69.957.164z"/><path d="M256 174c-45.289 0-82.008 36.715-82.008 82.004 0 45.293 36.719 82.008 82.008 82.008 45.293 0 82.008-36.715 82.008-82.008C338.008 210.715 301.293 174 256 174zm0 135.78c-29.699 0-53.773-24.074-53.773-53.773s24.074-53.773 53.773-53.773 53.773 24.074 53.773 53.773S285.699 309.78 256 309.78zm106.3-139.53c0 10.773-8.734 19.508-19.508 19.508s-19.512-8.734-19.512-19.508c0-10.777 8.738-19.512 19.512-19.512s19.508 8.734 19.508 19.512z"/></g></svg>